<svg width="56" height="56" viewBox="0 0 56 56" fill="none" xmlns="http://www.w3.org/2000/svg">
<path d="M55.125 28C55.125 42.9808 42.9808 55.125 28 55.125C13.0192 55.125 0.875 42.9808 0.875 28C0.875 13.0192 13.0192 0.875 28 0.875C42.9808 0.875 55.125 13.0192 55.125 28ZM24.8625 42.3625L44.9875 22.2375C45.6708 21.5541 45.6708 20.446 44.9875 19.7626L42.5126 17.2878C41.8293 16.6043 40.7212 16.6043 40.0377 17.2878L23.625 33.7004L15.9623 26.0377C15.2789 25.3543 14.1708 25.3543 13.4874 26.0377L11.0125 28.5125C10.3292 29.1959 10.3292 30.304 11.0125 30.9874L22.3875 42.3624C23.071 43.0458 24.179 43.0458 24.8625 42.3625Z" fill="#00DF5E"/>
</svg>
