<svg width="56" height="46" viewBox="0 0 56 46" fill="none" xmlns="http://www.w3.org/2000/svg">
<path d="M24.4037 45.3562L19.0662 43.8075C18.5062 43.65 18.1912 43.0637 18.3487 42.5037L30.2925 1.36124C30.45 0.801238 31.0362 0.486238 31.5963 0.643738L36.9338 2.19249C37.4938 2.34999 37.8087 2.93624 37.6512 3.49624L25.7075 44.6387C25.5412 45.1987 24.9637 45.5225 24.4037 45.3562ZM14.4287 35.5387L18.235 31.4787C18.6375 31.05 18.6112 30.3675 18.165 29.9737L10.2375 23L18.165 16.0262C18.6112 15.6325 18.6462 14.95 18.235 14.5212L14.4287 10.4612C14.035 10.0412 13.37 10.015 12.9412 10.4175L0.332498 22.23C-0.113752 22.6412 -0.113752 23.35 0.332498 23.7612L12.9412 35.5825C13.37 35.985 14.035 35.9675 14.4287 35.5387ZM43.0588 35.5912L55.6675 23.77C56.1138 23.3587 56.1138 22.65 55.6675 22.2387L43.0588 10.4087C42.6388 10.015 41.9738 10.0325 41.5713 10.4525L37.765 14.5125C37.3625 14.9412 37.3887 15.6237 37.835 16.0175L45.7625 23L37.835 29.9737C37.3887 30.3675 37.3538 31.05 37.765 31.4787L41.5713 35.5387C41.965 35.9675 42.63 35.985 43.0588 35.5912Z" fill="#00DF5E"/>
</svg>
