<svg width="56" height="56" viewBox="0 0 56 56" fill="none" xmlns="http://www.w3.org/2000/svg">
<path d="M53.3094 34.5297L48.65 31.8391C49.1203 29.3016 49.1203 26.6985 48.65 24.161L53.3094 21.4703C53.8453 21.1641 54.0859 20.5297 53.9109 19.9391C52.6969 16.0453 50.6297 12.5235 47.9281 9.59222C47.5125 9.14378 46.8344 9.0344 46.3094 9.34065L41.65 12.0313C39.6922 10.3469 37.4391 9.04534 35 8.19222V2.8219C35 2.2094 34.5734 1.67347 33.9719 1.54222C29.9578 0.645342 25.8453 0.689092 22.0281 1.54222C21.4266 1.67347 21 2.2094 21 2.8219V8.20315C18.5719 9.06722 16.3187 10.3688 14.35 12.0422L9.70156 9.35159C9.16562 9.04534 8.49844 9.14378 8.08281 9.60315C5.38125 12.5235 3.31406 16.0453 2.1 19.95C1.91406 20.5407 2.16562 21.175 2.70156 21.4813L7.36094 24.1719C6.89062 26.7094 6.89062 29.3125 7.36094 31.85L2.70156 34.5407C2.16562 34.8469 1.925 35.4813 2.1 36.0719C3.31406 39.9657 5.38125 43.4875 8.08281 46.4188C8.49844 46.8672 9.17656 46.9766 9.70156 46.6703L14.3609 43.9797C16.3187 45.6641 18.5719 46.9657 21.0109 47.8188V53.2C21.0109 53.8125 21.4375 54.3485 22.0391 54.4797C26.0531 55.3766 30.1656 55.3328 33.9828 54.4797C34.5844 54.3485 35.0109 53.8125 35.0109 53.2V47.8188C37.4391 46.9547 39.6922 45.6532 41.6609 43.9797L46.3203 46.6703C46.8562 46.9766 47.5234 46.8782 47.9391 46.4188C50.6406 43.4985 52.7078 39.9766 53.9219 36.0719C54.0859 35.4703 53.8453 34.836 53.3094 34.5297ZM28 36.75C23.1766 36.75 19.25 32.8235 19.25 28C19.25 23.1766 23.1766 19.25 28 19.25C32.8234 19.25 36.75 23.1766 36.75 28C36.75 32.8235 32.8234 36.75 28 36.75Z" fill="#00DF5E"/>
</svg>
