<svg width="56" height="50" viewBox="0 0 56 50" fill="none" xmlns="http://www.w3.org/2000/svg">
<path d="M55.3697 42.8902C57.1642 46.0007 54.9117 49.8889 51.3275 49.8889H4.67191C1.08082 49.8889 -1.16132 45.9947 0.629706 42.8902L23.9578 2.44299C25.7532 -0.668996 30.25 -0.663357 32.0422 2.44299L55.3697 42.8902ZM28 34.5278C25.5301 34.5278 23.5278 36.5301 23.5278 39C23.5278 41.4699 25.5301 43.4722 28 43.4722C30.4699 43.4722 32.4722 41.4699 32.4722 39C32.4722 36.5301 30.4699 34.5278 28 34.5278ZM23.754 18.4525L24.4752 31.6747C24.5089 32.2934 25.0205 32.7778 25.6401 32.7778H30.3599C30.9795 32.7778 31.4911 32.2934 31.5248 31.6747L32.246 18.4525C32.2824 17.7842 31.7503 17.2222 31.0811 17.2222H24.9188C24.2496 17.2222 23.7176 17.7842 23.754 18.4525Z" fill="#00DF5E"/>
</svg>
