<svg width="42" height="56" viewBox="0 0 42 56" fill="none" xmlns="http://www.w3.org/2000/svg">
<path d="M24.5 14.875V0H2.625C1.17031 0 0 1.17031 0 2.625V53.375C0 54.8297 1.17031 56 2.625 56H39.375C40.8297 56 42 54.8297 42 53.375V17.5H27.125C25.6813 17.5 24.5 16.3187 24.5 14.875ZM31.5 40.6875C31.5 41.4094 30.9094 42 30.1875 42H11.8125C11.0906 42 10.5 41.4094 10.5 40.6875V39.8125C10.5 39.0906 11.0906 38.5 11.8125 38.5H30.1875C30.9094 38.5 31.5 39.0906 31.5 39.8125V40.6875ZM31.5 33.6875C31.5 34.4094 30.9094 35 30.1875 35H11.8125C11.0906 35 10.5 34.4094 10.5 33.6875V32.8125C10.5 32.0906 11.0906 31.5 11.8125 31.5H30.1875C30.9094 31.5 31.5 32.0906 31.5 32.8125V33.6875ZM31.5 25.8125V26.6875C31.5 27.4094 30.9094 28 30.1875 28H11.8125C11.0906 28 10.5 27.4094 10.5 26.6875V25.8125C10.5 25.0906 11.0906 24.5 11.8125 24.5H30.1875C30.9094 24.5 31.5 25.0906 31.5 25.8125ZM42 13.3328V14H28V0H28.6672C29.3672 0 30.0344 0.273438 30.5266 0.765625L41.2344 11.4844C41.7266 11.9766 42 12.6438 42 13.3328Z" fill="#00DF5E"/>
</svg>
