<svg width="80" height="80" viewBox="0 0 80 80" fill="none" xmlns="http://www.w3.org/2000/svg">
<path d="M40 6.66663C35.6226 6.66663 31.2881 7.52882 27.2439 9.20398C23.1997 10.8791 19.5251 13.3344 16.4298 16.4297C10.1786 22.6809 6.66666 31.1594 6.66666 40C6.66666 54.7333 16.2333 67.2333 29.4667 71.6666C31.1333 71.9333 31.6667 70.9 31.6667 70V64.3666C22.4333 66.3666 20.4667 59.9 20.4667 59.9C18.9333 56.0333 16.7667 55 16.7667 55C13.7333 52.9333 17 53 17 53C20.3333 53.2333 22.1 56.4333 22.1 56.4333C25 61.5 29.9 60 31.8 59.2C32.1 57.0333 32.9667 55.5666 33.9 54.7333C26.5 53.9 18.7333 51.0333 18.7333 38.3333C18.7333 34.6333 20 31.6666 22.1667 29.3C21.8333 28.4666 20.6667 25 22.5 20.5C22.5 20.5 25.3 19.6 31.6667 23.9C34.3 23.1666 37.1667 22.8 40 22.8C42.8333 22.8 45.7 23.1666 48.3333 23.9C54.7 19.6 57.5 20.5 57.5 20.5C59.3333 25 58.1667 28.4666 57.8333 29.3C60 31.6666 61.2667 34.6333 61.2667 38.3333C61.2667 51.0666 53.4667 53.8666 46.0333 54.7C47.2333 55.7333 48.3333 57.7666 48.3333 60.8666V70C48.3333 70.9 48.8667 71.9666 50.5667 71.6666C63.8 67.2 73.3333 54.7333 73.3333 40C73.3333 35.6226 72.4711 31.288 70.796 27.2438C69.1208 23.1997 66.6655 19.525 63.5702 16.4297C60.4749 13.3344 56.8003 10.8791 52.7561 9.20398C48.7119 7.52882 44.3774 6.66663 40 6.66663Z" fill="#00DF5E"/>
</svg>
