<svg width="32" height="32" viewBox="0 0 32 32" fill="none" xmlns="http://www.w3.org/2000/svg">
<path d="M27.7495 2H4.2505C3.008 2 2 3.008 2 4.2505V27.7495C2 28.992 3.008 30 4.2505 30H27.7495C28.992 30 30 28.992 30 27.7495V4.2505C30 3.008 28.992 2 27.7495 2ZM27.7495 27.76C12.0765 27.7565 4.24 27.753 4.24 27.7495C4.2435 12.0765 4.247 4.24 4.2505 4.24C19.9235 4.2435 27.76 4.247 27.76 4.2505C27.7565 19.9235 27.753 27.76 27.7495 27.76ZM6.151 12.4965H10.3055V25.8595H6.151V12.4965ZM8.23 10.6695C9.5565 10.6695 10.638 9.5915 10.638 8.2615C10.638 7.94528 10.5757 7.63215 10.4547 7.34C10.3337 7.04785 10.1563 6.78239 9.93271 6.55879C9.70911 6.33518 9.44365 6.15781 9.1515 6.0368C8.85935 5.91578 8.54622 5.8535 8.23 5.8535C7.91378 5.8535 7.60065 5.91578 7.3085 6.0368C7.01635 6.15781 6.75089 6.33518 6.52729 6.55879C6.30368 6.78239 6.12631 7.04785 6.0053 7.34C5.88428 7.63215 5.822 7.94528 5.822 8.2615C5.8185 9.5915 6.8965 10.6695 8.23 10.6695ZM17.0605 19.248C17.0605 17.505 17.393 15.818 19.5525 15.818C21.6805 15.818 21.712 17.8095 21.712 19.36V25.8595H25.863V18.5305C25.863 14.9325 25.086 12.164 20.8825 12.164C18.863 12.164 17.5085 13.2735 16.952 14.3235H16.896V12.4965H12.9095V25.8595H17.0605V19.248Z" fill="#00DF5E"/>
</svg>
