<svg width="56" height="57" viewBox="0 0 56 57" fill="none" xmlns="http://www.w3.org/2000/svg">
<g clip-path="url(#clip0_93_20)">
<path d="M49 7.25H7C5.14348 7.25 3.36301 7.9875 2.05025 9.30025C0.737498 10.613 0 12.3935 0 14.25L0 42.25C0 44.1065 0.737498 45.887 2.05025 47.1997C3.36301 48.5125 5.14348 49.25 7 49.25H49C50.8565 49.25 52.637 48.5125 53.9497 47.1997C55.2625 45.887 56 44.1065 56 42.25V14.25C56 12.3935 55.2625 10.613 53.9497 9.30025C52.637 7.9875 50.8565 7.25 49 7.25ZM17.5 40.5H8.75C8.28587 40.5 7.84075 40.3156 7.51256 39.9874C7.18437 39.6592 7 39.2141 7 38.75V37C7 36.5359 7.18437 36.0908 7.51256 35.7626C7.84075 35.4344 8.28587 35.25 8.75 35.25H17.5V40.5ZM31.5 38.75C31.5 39.2141 31.3156 39.6592 30.9874 39.9874C30.6592 40.3156 30.2141 40.5 29.75 40.5H21V35.25H29.75C30.2141 35.25 30.6592 35.4344 30.9874 35.7626C31.3156 36.0908 31.5 36.5359 31.5 37V38.75ZM49 24.75C49 25.6783 48.6313 26.5685 47.9749 27.2249C47.3185 27.8813 46.4283 28.25 45.5 28.25H10.5C9.57174 28.25 8.6815 27.8813 8.02513 27.2249C7.36875 26.5685 7 25.6783 7 24.75V17.75C7 16.8217 7.36875 15.9315 8.02513 15.2751C8.6815 14.6187 9.57174 14.25 10.5 14.25H45.5C46.4283 14.25 47.3185 14.6187 47.9749 15.2751C48.6313 15.9315 49 16.8217 49 17.75V24.75Z" fill="#00DF5E"/>
</g>
<defs>
<clipPath id="clip0_93_20">
<rect width="56" height="56" fill="white" transform="translate(0 0.25)"/>
</clipPath>
</defs>
</svg>
