<svg width="56" height="56" viewBox="0 0 56 56" fill="none" xmlns="http://www.w3.org/2000/svg">
<g clip-path="url(#clip0_91_2)">
<path d="M18.2689 33.8341C13.8808 34.1162 9.89844 35.7875 7.63875 41.7419C7.38172 42.4211 6.76375 42.8334 6.04297 42.8334C4.82781 42.8334 1.07078 39.807 0 39.0764C0.00109375 48.0834 4.14969 56 14.0011 56C22.2983 56 28.0011 51.2127 28.0011 42.8542C28.0011 42.5141 27.93 42.1892 27.895 41.8556L18.2689 33.8341ZM50.0828 0C48.4247 0 46.8705 0.733906 45.6848 1.79922C23.3275 21.7711 21.0011 22.2403 21.0011 28.1192C21.0011 29.6177 21.3566 31.0461 21.9559 32.352L28.9362 38.1686C29.7248 38.3655 30.5375 38.5 31.3852 38.5C38.1784 38.5 42.1159 33.5267 54.4808 10.4497C55.288 8.88016 56.0011 7.18484 56.0011 5.41953C56.0011 2.2575 53.1573 0 50.0828 0Z" fill="#00DF5E"/>
</g>
<defs>
<clipPath id="clip0_91_2">
<rect width="56" height="56" fill="white"/>
</clipPath>
</defs>
</svg>
