<svg width="36" height="56" viewBox="0 0 36 56" fill="none" xmlns="http://www.w3.org/2000/svg">
<path d="M30.25 0H5.75C2.85156 0 0.5 2.35156 0.5 5.25V50.75C0.5 53.6484 2.85156 56 5.75 56H30.25C33.1484 56 35.5 53.6484 35.5 50.75V5.25C35.5 2.35156 33.1484 0 30.25 0ZM18 52.5C16.0641 52.5 14.5 50.9359 14.5 49C14.5 47.0641 16.0641 45.5 18 45.5C19.9359 45.5 21.5 47.0641 21.5 49C21.5 50.9359 19.9359 52.5 18 52.5ZM30.25 40.6875C30.25 41.4094 29.6594 42 28.9375 42H7.0625C6.34063 42 5.75 41.4094 5.75 40.6875V6.5625C5.75 5.84063 6.34063 5.25 7.0625 5.25H28.9375C29.6594 5.25 30.25 5.84063 30.25 6.5625V40.6875Z" fill="#00DF5E"/>
</svg>
