<svg width="80" height="80" viewBox="0 0 80 80" fill="none" xmlns="http://www.w3.org/2000/svg">
<g clip-path="url(#clip0_254707_804)">
<path d="M61.25 0H18.75C8.39466 0 0 8.39466 0 18.75V61.25C0 71.6053 8.39466 80 18.75 80H61.25C71.6053 80 80 71.6053 80 61.25V18.75C80 8.39466 71.6053 0 61.25 0Z" fill="#00DF5E"/>
<mask id="mask0_254707_804" style="mask-type:luminance" maskUnits="userSpaceOnUse" x="8" y="16" width="64" height="48">
<path d="M8.75 16.5625H71.25V63.4091H8.75V16.5625Z" fill="white"/>
</mask>
<g mask="url(#mask0_254707_804)">
<path d="M62.5335 43.4885C60.3541 43.4997 58.4603 44.0247 56.8744 44.8003C56.2925 43.6481 55.7106 42.6213 55.6078 41.8681C55.4938 40.9897 55.3569 40.4535 55.4938 39.4038C55.6306 38.3541 56.2469 36.8597 56.2353 36.7456C56.2241 36.6313 56.0985 36.0953 54.8435 36.0838C53.5885 36.0725 52.5047 36.3235 52.3791 36.6544C52.2535 36.985 52.0141 37.7381 51.8544 38.5141C51.6375 39.655 49.3441 43.7281 48.0322 45.8616C47.61 45.0288 47.245 44.2985 47.165 43.7166C47.0509 42.8381 46.9141 42.3019 47.051 41.2522C47.1878 40.2025 47.8041 38.7078 47.7925 38.5938C47.7813 38.4797 47.6556 37.9435 46.4006 37.9322C45.1456 37.9206 44.0616 38.1716 43.9363 38.5025C43.8106 38.8335 43.6738 39.6094 43.4113 40.3622C43.1491 41.1153 40.1028 47.9153 39.3041 49.6722C38.9814 50.3832 38.6428 51.0869 38.2888 51.7828C38.2888 51.7828 38.2772 51.8172 38.2431 51.8741C38.1318 52.0923 38.0176 52.3091 37.9006 52.5244V52.536C37.7297 52.8441 37.5469 53.1291 37.4556 53.1291C37.3872 53.1291 37.2619 52.3078 37.4785 51.1897C37.935 48.8278 39.0188 45.1541 39.0075 45.0288C39.0075 44.9603 39.2128 44.3213 38.3 43.9903C37.41 43.6594 37.0906 44.2072 37.0106 44.2072C36.931 44.2072 36.8738 44.4013 36.8738 44.4013C36.8738 44.4013 37.8666 40.271 34.98 40.271C33.1772 40.271 30.69 42.2447 29.4581 44.0247C28.0573 44.7869 26.6576 45.5513 25.2591 46.3178C24.5863 46.6944 23.8903 47.071 23.2397 47.4247C23.1941 47.3791 23.1485 47.3219 23.1028 47.2763C19.6116 43.5453 13.1541 40.91 13.4278 35.9013C13.5306 34.0756 14.1581 29.2838 25.8297 23.465C35.4363 18.7303 43.0806 20.0422 44.4041 22.9516C46.2978 27.1047 40.3081 34.8172 30.3822 35.9353C26.5941 36.3575 24.6091 34.8972 24.1072 34.3497C23.5822 33.7791 23.5022 33.745 23.3081 33.8591C22.9888 34.03 23.1941 34.5435 23.3081 34.84C23.605 35.616 24.8256 36.985 26.8906 37.6581C28.7163 38.2516 33.1544 38.5825 38.5281 36.506C44.541 34.1785 49.2416 27.7091 47.861 22.29C46.4806 16.7906 37.3531 14.9766 28.7163 18.0456C23.5819 19.8713 18.0144 22.7463 14.0097 26.4885C9.25189 30.9385 8.49908 34.806 8.8072 36.426C9.91376 42.1763 17.8431 45.9185 21.015 48.691C20.8553 48.7822 20.7069 48.8622 20.5816 48.9306C18.9956 49.7178 12.9488 52.8781 11.4425 56.2213C9.73126 60.0091 11.7166 62.7244 13.0285 63.0894C17.1016 64.2191 21.2888 62.1881 23.5366 58.8338C25.7841 55.4794 25.5103 51.1213 24.4719 49.1247C24.4608 49.0994 24.4453 49.0763 24.4263 49.0563C24.8372 48.8166 25.2591 48.5656 25.67 48.326C26.4251 47.8798 27.1896 47.4499 27.9631 47.0366C27.5753 48.0978 27.29 49.3641 27.1531 51.1897C26.9822 53.3347 27.8606 56.1185 29.0128 57.2138C29.5263 57.6928 30.131 57.7044 30.5191 57.7044C31.8653 57.7044 32.47 56.5863 33.1431 55.2628C33.9644 53.6425 34.7063 51.76 34.7063 51.76C34.7063 51.76 33.7819 56.8488 36.2919 56.8488C37.2047 56.8488 38.1288 55.6622 38.5397 55.0575V55.0688C38.5397 55.0688 38.5625 55.0347 38.6081 54.9547C38.6994 54.8063 38.7563 54.715 38.7563 54.715V54.6922C39.1216 54.0535 39.9428 52.6044 41.1638 50.1969C42.7381 47.0938 44.2556 43.2147 44.2556 43.2147C44.2556 43.2147 44.3925 44.1616 44.8603 45.736C45.1341 46.6603 45.7047 47.6756 46.161 48.6569C45.796 49.1703 45.5678 49.4553 45.5678 49.4553L45.5791 49.4669C45.2825 49.8547 44.9631 50.2769 44.6094 50.6875C43.3656 52.171 41.8825 53.871 41.6772 54.3616C41.4375 54.9435 41.4947 55.3653 41.951 55.7078C42.2819 55.9588 42.875 55.9928 43.4797 55.9588C44.5978 55.8788 45.3853 55.605 45.7731 55.4338C46.3778 55.2172 47.0853 54.8863 47.7469 54.3956C48.9678 53.4944 49.7094 52.205 49.641 50.505C49.6066 49.5694 49.2985 48.6341 48.9222 47.7553C49.0363 47.5956 49.1388 47.436 49.2528 47.2763C51.1813 44.4581 52.6756 41.3663 52.6756 41.3663C52.6756 41.3663 52.8125 42.3131 53.2803 43.8878C53.5085 44.6863 53.9763 45.5535 54.3872 46.3978C52.5731 47.8697 51.455 49.581 51.0556 50.6991C50.3369 52.7756 50.896 53.711 51.9569 53.9278C52.4363 54.0306 53.1206 53.8025 53.6228 53.5856C54.2616 53.3803 55.0147 53.0266 55.7335 52.5016C56.9541 51.6003 58.1294 50.3453 58.061 48.6453C58.0266 47.8697 57.8213 47.105 57.536 46.3635C59.0763 45.7247 61.0616 45.371 63.5944 45.6675C69.0253 46.3066 70.0978 49.695 69.8922 51.1213C69.6869 52.5472 68.546 53.3231 68.1694 53.5628C67.7931 53.8025 67.6675 53.8822 67.7019 54.0534C67.7475 54.3044 67.93 54.2928 68.2494 54.2472C68.6944 54.1675 71.1016 53.095 71.2044 50.471C71.3756 47.1166 68.181 43.4541 62.5335 43.4885ZM20.6385 57.6131C18.836 59.5753 16.326 60.3172 15.2419 59.6897C14.0781 59.0163 14.5344 56.1185 16.7481 54.0419C18.0941 52.7756 19.8285 51.6003 20.9806 50.8816C21.2431 50.7219 21.631 50.4938 22.0988 50.2085C22.1788 50.1628 22.2244 50.14 22.2244 50.14L22.4981 49.9688C23.3081 52.9353 22.5322 55.5481 20.6385 57.6131ZM33.7591 48.691C33.1316 50.22 31.8197 54.1331 31.021 53.9166C30.3366 53.7338 29.9144 50.7675 30.8841 47.8353C31.3747 46.3635 32.4128 44.6066 33.0175 43.9219C33.9988 42.8266 35.0825 42.4616 35.345 42.9066C35.676 43.4885 34.1472 47.7325 33.7591 48.691ZM44.5866 53.8709C44.3241 54.0078 44.0731 54.0991 43.9591 54.0306C43.8791 53.985 44.0731 53.8025 44.0731 53.8025C44.0731 53.8025 45.431 52.3419 45.9672 51.6803C46.275 51.2922 46.6403 50.836 47.0281 50.3225V50.471C47.0281 52.2166 45.3397 53.3916 44.5866 53.8709ZM52.9381 51.9653C52.7441 51.8285 52.7785 51.3722 53.4288 49.946C53.6797 49.3869 54.2731 48.4516 55.2885 47.55C55.4025 47.9153 55.4825 48.2688 55.471 48.5997C55.4597 50.8019 53.885 51.6231 52.9381 51.9653Z" fill="#171717"/>
</g>
</g>
<defs>
<clipPath id="clip0_254707_804">
<rect width="80" height="80" fill="white"/>
</clipPath>
</defs>
</svg>
