<svg width="80" height="80" viewBox="0 0 80 80" fill="none" xmlns="http://www.w3.org/2000/svg">
<path fill-rule="evenodd" clip-rule="evenodd" d="M0.761902 35.0975C0.761902 35.5369 0.891277 35.8269 0.963777 36.1087C1.43628 37.9419 2.4519 39.515 3.6569 40.95C5.37315 42.995 7.47503 44.6412 9.62815 46.1894C11.4957 47.5319 13.4013 48.8444 15.2763 50.1769C15.5982 50.4056 15.9025 50.6687 16.2519 50.9494C15.9513 51.1119 15.7013 51.255 15.4413 51.3869C12.9669 52.6419 10.5863 54.0488 8.3919 55.7531C7.0694 56.7806 5.79065 57.8725 4.88753 59.2994C3.4344 61.5944 2.92003 64.0394 4.00315 66.65C4.3194 67.4125 4.8019 68.0713 5.48253 68.5581C5.70315 68.7156 5.95065 68.8719 6.20878 68.9331C6.87003 69.0887 7.54378 69.1906 8.21315 69.3138L10.1088 69.3125C12.205 69.1256 14.1132 68.4075 15.8375 67.2175C18.5325 65.3575 20.3482 62.8637 21.1288 59.6631C21.6963 57.3369 21.7194 55.0081 21.0507 52.6925C20.9866 52.478 20.9128 52.2665 20.8294 52.0587C20.7482 51.8506 20.6525 51.6481 20.54 51.3888L24.8375 48.9175L24.9019 48.9725C24.8238 49.2281 24.7407 49.4831 24.67 49.7412C24.1594 51.6062 23.82 53.5038 23.9419 55.4394C24.0719 57.5019 24.6475 59.4325 25.855 61.1556C26.8313 62.5494 29.1575 62.6013 30.195 61.2025C30.5632 60.7056 30.92 60.1863 31.1882 59.6319C31.8888 58.185 32.5375 56.7125 33.2069 55.25L33.3238 54.9825C33.2757 55.675 33.2194 56.2831 33.1938 56.8919C33.1538 57.8425 33.2094 58.7875 33.5344 59.6919C33.8125 60.4656 34.2857 61.0438 35.1719 61.1456C35.7782 61.215 36.2613 60.9375 36.7069 60.5856C37.3973 60.0401 37.9695 59.3598 38.3888 58.5862C39.5769 56.4044 40.7969 54.2356 41.8738 51.9987C43.0388 49.5794 44.0575 47.0894 45.1394 44.6287L45.3182 44.1925C45.5738 45.1969 45.7519 46.1806 46.08 47.1119C46.4613 48.1925 46.9332 49.2475 47.4469 50.2731C47.69 50.7575 47.6619 51.0719 47.325 51.4781C45.915 53.1781 44.5294 54.8987 43.1425 56.6175C42.8357 56.9969 42.53 57.3831 42.2744 57.7975C42.1193 58.0592 42.0174 58.3489 41.9744 58.65C41.9314 58.9272 41.9974 59.2104 42.1585 59.44C42.3197 59.6697 42.5634 59.828 42.8388 59.8819C43.3945 60.0015 43.9642 60.0422 44.5313 60.0025C46.4669 59.86 48.2244 59.1806 49.7781 58.0294C51.7913 56.5381 52.4375 54.5031 51.95 52.0913C51.8182 51.4369 51.585 50.8006 51.3581 50.17C51.2563 49.8856 51.2494 49.6862 51.435 49.4212C53.0444 47.1231 54.4194 44.685 55.6981 42.1906C55.7488 42.0925 55.8006 41.9944 55.8894 41.8894C56.3038 44.0456 56.9275 46.1238 58.045 48.0094C57.475 48.5588 56.9106 49.0569 56.4 49.6056C55.2756 50.8144 54.3007 52.1269 53.7919 53.7275C53.5732 54.4175 53.405 55.1188 53.5025 55.8556C53.6538 57 54.5913 57.7437 55.7169 57.4831C58.1257 56.9256 60.205 55.7906 61.7244 53.78C62.7469 52.4262 62.84 50.9162 62.4119 49.3344C62.2944 48.9044 62.155 48.4812 62.005 47.9881C62.5994 47.8037 63.1788 47.5825 63.7781 47.4456C66.89 46.7356 69.9682 46.8594 72.9669 47.9831C74.7175 48.6394 76.1319 49.7375 76.9707 51.465C77.995 53.5769 77.4288 55.5806 75.4381 56.9156C75.2525 57.04 75.04 57.1381 74.8863 57.2937C74.837 57.3508 74.8002 57.4175 74.7781 57.4896C74.7561 57.5617 74.7493 57.6376 74.7582 57.7125C74.7713 57.7894 74.9744 57.8856 75.0913 57.8844C75.7457 57.8794 76.2763 57.5363 76.7857 57.1838C78.0619 56.3006 78.9932 55.1125 79.1938 53.5481L79.2332 53.4306L79.185 52.4119C79.1657 52.3531 79.1994 52.295 79.195 52.2506C78.9238 49.9725 77.7069 48.2056 75.9369 46.8206C73.8869 45.2175 71.4663 44.5575 68.9063 44.4531C66.83 44.3638 64.7564 44.6829 62.8032 45.3925C62.2425 45.5956 61.6869 45.8362 61.1231 46.0631C61.0475 45.9262 60.9663 45.795 60.8994 45.6594C60.3207 44.4744 59.6194 43.3419 59.4644 41.9831C59.3544 41.0181 59.2194 40.0544 59.4488 39.1C59.6694 38.1819 59.9569 37.2794 60.2275 36.3738C60.3669 35.9075 60.2688 35.6463 59.8238 35.4363C59.6687 35.3589 59.5032 35.3046 59.3325 35.275C58.2388 35.1162 57.16 35.2069 56.1007 35.515C55.7257 35.6244 55.4532 35.8344 55.37 36.2494C55.3225 36.4875 55.2256 36.7156 55.1581 36.9506C54.8813 37.9275 54.685 38.9231 54.2375 39.8537C53.1163 42.1881 51.8363 44.4344 50.5263 46.6644C50.3844 46.905 50.235 47.1412 50.0563 47.4331C49.5963 46.4706 49.1057 45.6069 48.9569 44.5944C48.7888 43.4494 48.6563 42.3063 48.9413 41.17C49.1532 40.3225 49.43 39.4906 49.685 38.6544C49.8057 38.2569 49.75 38.0481 49.39 37.8387C49.2082 37.7331 49.0025 37.6394 48.7975 37.6087C47.676 37.4379 46.5301 37.5317 45.4513 37.8825C45.1119 37.9925 44.9338 38.2119 44.83 38.5619C44.525 39.5944 44.265 40.6519 43.8369 41.6337C42.1032 45.6087 40.3194 49.5631 38.5375 53.5169C38.1657 54.3425 37.73 55.1394 37.3106 55.9431C37.2044 56.1469 37.0494 56.3263 36.9169 56.5175C36.8107 56.3919 36.7694 56.3056 36.77 56.2194C36.7732 55.7112 36.7125 55.1881 36.8094 54.6969C37.1069 53.2111 37.4357 51.7319 37.7957 50.26C38.0894 49.0438 38.4313 47.8388 38.7569 46.6306C38.8663 46.2263 38.8682 45.8481 38.5775 45.5081C38.0894 44.9388 37.0694 44.8137 36.4644 45.2525L36.1969 45.4038L36.2488 44.9725C36.3763 44.0481 36.4019 43.1269 36.1482 42.2162C35.8319 41.0812 35.0219 40.4281 33.8444 40.4644C33.2957 40.4812 32.7194 40.575 32.2113 40.775C30.0744 41.6125 28.4313 43.0956 27.0325 44.88C26.9029 45.0457 26.7422 45.1845 26.5594 45.2887C24.7513 46.2912 22.9375 47.2812 21.1244 48.275L19.1063 49.3806C18.565 48.8644 18.0732 48.3287 17.515 47.8744C15.8107 46.4844 14.0788 45.1288 12.3625 43.7544C10.8413 42.5363 9.36753 41.2675 8.24003 39.6544C7.40128 38.4544 6.86065 37.1412 6.80878 35.6575C6.74315 33.7669 7.2794 32.0394 8.2419 30.4312C9.47315 28.3737 11.1525 26.7225 12.9988 25.2269C14.9519 23.6456 17.0644 22.3031 19.2538 21.0775C22.3169 19.3631 25.4675 17.8456 28.8457 16.8438C32.3094 15.8163 35.8238 15.2281 39.4488 15.6381C40.8738 15.7994 42.2575 16.1256 43.5281 16.8225C44.5013 17.3556 45.2994 18.0537 45.6706 19.145C46.0369 20.2188 46.0257 21.3069 45.7719 22.3975C45.2563 24.6062 44.0469 26.4269 42.525 28.0538C40.0288 30.7206 36.9838 32.5363 33.5557 33.7356C31.5846 34.4261 29.5338 34.8636 27.4525 35.0375C25.7469 35.1806 24.0769 35.0294 22.4619 34.4362C21.3925 34.0431 20.4613 33.4419 19.7125 32.5694C19.5788 32.4131 19.4075 32.2438 19.1582 32.39C18.9138 32.5338 18.8707 32.7663 18.9525 33.0019C19.0894 33.3931 19.2157 33.8006 19.4288 34.1506C19.9644 35.0287 20.7457 35.6656 21.6057 36.2119C23.2575 37.2625 25.1038 37.6156 27.0182 37.6975C29.9232 37.8231 32.7575 37.3894 35.5519 36.61C39.5413 35.4975 43.01 33.5325 45.7919 30.4325C48.1081 27.8513 49.7625 24.9381 50.1169 21.4206C50.29 19.7037 50.1057 18.0219 49.3019 16.4556C48.43 14.7588 47.0438 13.4969 45.3863 12.6275C42.9725 11.3619 40.3675 10.625 37.6788 10.625H34.985C31.7288 10.625 28.5807 11.5581 25.5207 12.6713C23.2044 13.5144 20.9332 14.5094 18.7282 15.6106C13.9263 18.01 9.4544 20.9031 5.78128 24.8813C3.95128 26.8631 2.4019 29.05 1.51065 31.625C1.24166 32.3938 1.00993 33.1751 0.816277 33.9663M18.2157 56.4744C18.0075 59.2613 16.7444 61.5206 14.68 63.3506C13.5188 64.3794 12.1869 65.1119 10.6357 65.3694C10.0732 65.4625 9.49753 65.485 8.9519 65.2519C8.17378 64.9194 7.9994 64.2287 7.9844 63.4931C7.96128 62.3206 8.3719 61.2606 8.93503 60.2519C9.67003 58.9369 10.7475 57.9344 11.8982 56.9981C13.7107 55.5225 15.6769 54.2738 17.6907 53.095L17.8425 53.0325C18.1538 54.1825 18.3019 55.3181 18.2157 56.4744ZM33.9394 44.3625C33.7925 45.2525 33.6088 46.1431 33.3488 47.0056C32.45 49.9912 31.2957 52.8844 30.0475 55.7387C29.8169 56.2669 29.4813 56.7487 29.1894 57.2494C29.1397 57.3263 29.0803 57.3965 29.0125 57.4581C28.6513 57.815 28.3088 57.7962 28.1263 57.3294C27.9138 56.7869 27.7832 56.2063 27.6707 55.6319C27.595 55.2463 27.6132 54.8412 27.5894 54.4462C27.6138 51.6375 28.4707 49.085 29.9244 46.7088C30.5238 45.7288 31.1763 44.795 32.1732 44.175C32.4833 43.9822 32.8188 43.8337 33.17 43.7337C33.7013 43.5844 34.0275 43.83 33.9394 44.3625ZM44.6669 58.03L48.5225 53.5281C48.6832 55.2 45.8413 58.5375 44.6669 58.03ZM56.9813 55.0006C56.7088 55.1569 56.4119 55.2694 56.1325 55.4138C55.8769 55.5463 55.7925 55.4125 55.785 55.1925C55.7813 55.0402 55.8009 54.8882 55.8432 54.7419C56.3638 52.9056 57.3219 51.3381 58.7475 50.0631L58.8475 50.0119C59.5256 51.9087 58.7419 53.9919 56.9813 55.0006Z" fill="#00DF5E"/>
</svg>
