<svg width="80" height="80" viewBox="0 0 80 80" fill="none" xmlns="http://www.w3.org/2000/svg">
<g clip-path="url(#clip0_254707_801)">
<path d="M14.1688 29.375H76.4625V75.4187H14.1688V29.375Z" fill="#171717"/>
<path d="M0.9375 39.9437V79.0062H79.0625V0.881226H0.9375V39.9437ZM63.8938 36.8187C65.7649 37.253 67.4656 38.2316 68.7813 39.6312C69.5055 40.3853 70.1352 41.2248 70.6563 42.1312C70.6563 42.2312 67.2813 44.5125 65.225 45.7875C65.15 45.8375 64.85 45.5125 64.5188 45.0187C64.1434 44.371 63.61 43.829 62.9685 43.4432C62.3269 43.0574 61.5981 42.8404 60.85 42.8125C58.4813 42.65 56.9563 43.8937 56.9688 45.9375C56.9492 46.4463 57.0657 46.9512 57.3063 47.4C57.825 48.4812 58.7938 49.125 61.8313 50.4375C67.425 52.8437 69.8187 54.4312 71.3062 56.6875C72.9687 59.1875 73.3375 63.225 72.2125 66.2125C70.9625 69.4625 67.9 71.6687 63.5687 72.4C61.5905 72.6266 59.5918 72.6056 57.6188 72.3375C54.5948 71.839 51.8093 70.3871 49.6688 68.1937C48.95 67.4 47.55 65.3312 47.6375 65.1812C47.8657 65.0118 48.1059 64.8594 48.3563 64.725L51.25 63.125L53.4937 61.825L53.9625 62.5187C54.7536 63.6503 55.7603 64.6146 56.925 65.3562C59.425 66.6687 62.8375 66.4875 64.525 64.9687C65.0916 64.4122 65.445 63.6746 65.5238 62.8843C65.6026 62.094 65.4018 61.3012 64.9563 60.6437C64.3313 59.775 63.0812 59.0437 59.5875 57.5187C55.5562 55.7812 53.8187 54.7062 52.2312 52.9937C51.2402 51.8637 50.5085 50.5304 50.0875 49.0875C49.7735 47.439 49.727 45.7507 49.95 44.0875C50.7812 40.1937 53.7 37.475 57.9625 36.6687C59.9365 36.4245 61.9361 36.4793 63.8938 36.8312V36.8187ZM45.5562 40.0937V43.2937H35.4125V72.1875H28.2188V43.2875H18.05V40.1625C18.0183 39.0848 18.0434 38.0062 18.125 36.9312C18.175 36.875 24.375 36.875 31.875 36.875H45.5188L45.5562 40.0937Z" fill="#00DF5E"/>
</g>
<defs>
<clipPath id="clip0_254707_801">
<rect width="80" height="80" fill="white"/>
</clipPath>
</defs>
</svg>
