<svg width="80" height="80" viewBox="0 0 80 80" fill="none" xmlns="http://www.w3.org/2000/svg">
<g clip-path="url(#clip0_254707_843)">
<path d="M19.7867 15.6466C18.6667 15.6466 17.5367 15.9066 16.41 16.3866C15.2767 16.8699 14.1567 17.5399 13.0533 18.4033C11.8824 19.3189 10.7999 20.3422 9.82 21.4599C8.77667 22.6399 7.78667 23.9433 6.86333 25.3399C5.94333 26.7399 5.08667 28.2299 4.26333 29.7399H4.26V29.7433C3.46333 31.3199 2.76667 32.9433 2.16 34.5933C1.56 36.2466 1.08 37.9033 0.7 39.5833C0.333333 41.2499 0.106667 42.8733 0.0333333 44.4666C0.0132395 44.5665 0.00208437 44.668 0 44.7699L0 45.0866C0 45.9566 0.126667 46.8533 0.25 47.6733V47.6799L0.253333 47.6866C0.48 48.5599 0.836667 49.3666 1.28667 50.0766C1.74811 50.7776 2.3595 51.3674 3.07667 51.8033C3.8 52.2633 4.65667 52.4933 5.66333 52.4933C6.54 52.4933 7.45 52.2933 8.38667 51.8766C9.31667 51.4599 10.2433 50.9166 11.1667 50.2799C12.06 49.6399 12.9533 48.9066 13.8133 48.0799C14.5033 47.4399 15.1333 46.7733 15.7567 46.1133L15.1033 48.1399C14.82 49.1166 14.5033 50.0599 14.2467 50.9833C13.9633 51.8966 13.74 52.7166 13.55 53.4433C13.36 54.1633 13.23 54.6499 13.23 54.9633V55.6799C13.23 56.4833 13.3133 57.0499 13.5767 57.4066C13.7076 57.5737 13.8768 57.707 14.07 57.7951C14.2631 57.8833 14.4746 57.9238 14.6867 57.9133C15.0081 57.9085 15.3188 57.7971 15.57 57.5966C15.84 57.3966 16.07 57.1399 16.3 56.8499V56.8433L16.3067 56.8399C16.4967 56.5499 16.69 56.2399 16.8533 55.9133C17.02 55.5766 17.1133 55.2799 17.21 55.0166L17.4333 54.2133L17.91 52.5633L18.5433 50.3566C18.7967 49.5333 19.0167 48.7066 19.3 47.8666L20.05 45.3666C20.29 44.5533 20.5167 43.8166 20.7267 43.1633C20.9367 42.4966 21.1133 41.9566 21.26 41.5199C21.3267 41.3033 21.3933 41.1333 21.44 41.0066L21.4867 40.8999L21.62 40.9599L21.68 40.7999C21.9333 40.0733 22.1833 39.3766 22.4367 38.7133C22.69 38.0466 22.9433 37.3799 23.1367 36.7233C23.6304 35.3438 23.8786 33.8884 23.87 32.4233C23.8734 32.1315 23.8167 31.8421 23.7033 31.5733C23.6182 31.3417 23.4761 31.1353 23.29 30.9733C23.1212 30.824 22.9239 30.7106 22.71 30.6399C22.5054 30.574 22.2917 30.5402 22.0767 30.5399C21.6229 30.5467 21.1825 30.6946 20.8167 30.9633C20.3867 31.2499 20.0667 31.7266 19.8267 32.3699L17.9933 38.2533C17.6857 38.8496 17.3324 39.4213 16.9367 39.9633C15.3175 42.2439 13.4005 44.301 11.2367 46.0733C10.6179 46.5895 9.94769 47.0407 9.23667 47.4199C8.73007 47.7179 8.15732 47.8851 7.57 47.9066C7.19374 47.9181 6.82548 47.7965 6.53 47.5633C6.22392 47.3255 5.98876 47.0085 5.85 46.6466C5.68251 46.2327 5.56827 45.7993 5.51 45.3566C5.44773 44.8903 5.41655 44.4204 5.41667 43.9499C5.41667 42.5733 5.63667 41.0366 6.07667 39.3033C6.51667 37.5699 7.11667 35.8366 7.87333 34.0399C8.63 32.2399 9.51333 30.5066 10.4933 28.8033C11.47 27.0999 12.51 25.5866 13.58 24.2633C14.6467 22.9433 15.7133 21.9099 16.8133 21.0966C17.9033 20.2833 18.88 19.8899 19.82 19.8899C20.4082 19.8813 20.9854 20.0497 21.4767 20.3733C21.9833 20.6999 22.4433 21.2499 22.8767 22.0266C23.3233 22.8899 23.7733 23.5566 24.16 24.0433C24.56 24.5433 25.0233 24.7999 25.52 24.7999C25.7896 24.8026 26.0559 24.7411 26.297 24.6205C26.5381 24.5 26.7471 24.3238 26.9067 24.1066C27.29 23.6466 27.4733 23.0166 27.4733 22.2533C27.4733 21.9333 27.44 21.5866 27.3733 21.2299C27.2976 20.8302 27.1386 20.4509 26.9067 20.1166C25.86 18.5499 24.7367 17.4266 23.54 16.7033H23.5333C22.4004 16.0218 21.1087 15.6569 19.7867 15.6466ZM56.3233 18.4966C55.84 18.5039 55.3677 18.6422 54.9567 18.8966L54.95 18.8999C54.4517 19.2512 54.0799 19.7539 53.89 20.3333L47.5933 36.1933L46.2033 39.6766C45.6933 40.9433 45.22 42.2099 44.7133 43.5033C44.481 44.1031 44.2851 44.7165 44.1267 45.3399C43.8492 45.5883 43.5635 45.8274 43.27 46.0566C42.58 46.5899 41.9267 46.9933 41.3067 47.2733H41.3C40.826 47.5346 40.2975 47.6818 39.7567 47.7033C39.4833 47.7033 39.3 47.6366 39.1833 47.5266C39.0667 47.4166 38.9967 47.2466 38.9967 46.9733C38.9967 46.3566 39.09 45.6733 39.2767 44.9233C39.4667 44.1899 39.7167 43.4199 40 42.6466C40.2717 41.8673 40.5764 41.1 40.9133 40.3466L41.8333 38.1999C42.12 37.5333 42.3433 36.9266 42.5333 36.4199C42.7026 36.0208 42.8029 35.5959 42.83 35.1633C42.8371 34.6383 42.6694 34.1258 42.3533 33.7066C42.2027 33.5052 42.0062 33.3426 41.78 33.2325C41.5539 33.1223 41.3048 33.0677 41.0533 33.0733C40.8113 33.0677 40.5714 33.1187 40.3526 33.2223C40.1339 33.3259 39.9423 33.4792 39.7933 33.6699C39.4368 34.0874 39.1509 34.5603 38.9467 35.0699C38.6799 35.6494 38.456 36.2477 38.2767 36.8599C38.09 37.4933 37.84 38.0866 37.5867 38.6433C37.21 39.4766 36.7667 40.3899 36.2 41.3966C35.6457 42.3868 35.0161 43.3329 34.3167 44.2266C33.6267 45.0933 32.8767 45.8233 32.0667 46.4066C31.3472 46.9537 30.4705 47.2542 29.5667 47.2633C29.29 47.2633 29.1067 47.1633 29.01 46.9699C28.891 46.7381 28.8315 46.4804 28.8367 46.2199C28.87 45.5399 28.99 44.8233 29.21 44.0766C29.43 43.3366 29.68 42.5999 29.9633 41.8766C30.2467 41.1766 30.5633 40.4633 30.9067 39.7933C31.2567 39.1233 31.5733 38.4899 31.8867 37.9266V37.9233L32.7133 36.3566C32.8921 36.0024 33.0425 35.6346 33.1633 35.2566L33.1667 35.2499C33.2 35.1166 33.2367 34.9466 33.2367 34.7633C33.2415 34.5137 33.1793 34.2674 33.0567 34.0499V34.0466L33.0533 34.0433C32.93 33.8429 32.7675 33.6693 32.5757 33.533C32.3838 33.3967 32.1665 33.3005 31.9367 33.2499C31.6063 33.1464 31.2559 33.1236 30.9149 33.1833C30.5739 33.243 30.2522 33.3836 29.9767 33.5933C29.5367 33.8966 29.2067 34.3666 28.9133 35.0133C27.9493 36.9935 27.0707 39.0143 26.28 41.0699C25.6467 42.7533 25.2033 44.1166 24.8867 45.1666C24.6458 45.9293 24.4642 46.7093 24.3433 47.4999V47.5033L24.2767 48.2733V48.2799C24.2767 48.9933 24.3733 49.6133 24.5767 50.1133V50.1199C24.8033 50.6099 25.07 51.0066 25.4067 51.3099C25.7522 51.6118 26.1629 51.8297 26.6067 51.9466C27.0467 52.0799 27.5067 52.1433 27.9733 52.1433C29.01 52.1433 29.9667 51.9499 30.8433 51.6266C31.72 51.3033 32.5133 50.8533 33.2233 50.3066C33.9174 49.7723 34.5471 49.1593 35.1 48.4799C35.5 48.0133 35.8 47.5299 36.1 47.0566C35.9667 47.7899 35.84 48.5133 35.84 49.1033C35.84 50.2033 36.05 51.0033 36.5133 51.4933C36.7378 51.7276 37.0089 51.9122 37.3092 52.0351C37.6095 52.158 37.9323 52.2164 38.2567 52.2066C38.95 52.2066 39.72 52.0166 40.57 51.6399C41.4133 51.2633 42.27 50.7666 43.1367 50.1533C43.3533 50.0033 43.56 49.8433 43.77 49.6833L43.7867 49.8033C43.8771 50.2206 44.0468 50.6167 44.2867 50.9699L44.2933 50.9766C44.56 51.3066 44.86 51.5766 45.2633 51.7766C45.7327 51.9936 46.2465 52.0975 46.7633 52.0799C47.6683 52.0656 48.5609 51.8671 49.3867 51.4966H49.3933C50.2867 51.0799 51.1833 50.5666 52.0767 49.8966C53.0249 49.1775 53.9288 48.4016 54.7833 47.5733L54.8167 47.5433C54.6633 47.8966 54.5167 48.2499 54.3567 48.6066C53.6267 50.2199 52.8833 51.8466 52.11 53.5099C51.3333 55.1766 50.5567 56.8233 49.83 58.4699L49.8267 58.4799L49.8233 58.4866C49.7195 58.7997 49.6039 59.1089 49.4767 59.4133C49.3567 59.7199 49.1933 60.0399 49.0933 60.4066C48.97 60.7399 48.8433 61.0699 48.7767 61.4299C48.6767 61.7966 48.6433 62.1533 48.6433 62.4799C48.6433 63.1733 48.84 63.7033 49.2167 63.9699C49.6073 64.2347 50.0717 64.3689 50.5433 64.3533C50.95 64.3533 51.3233 64.2533 51.66 64.0866L51.6633 64.0833C51.9976 63.894 52.2947 63.6455 52.54 63.3499C52.7933 63.0499 53.0067 62.7099 53.2 62.3233C53.3916 61.9267 53.5629 61.5206 53.7133 61.1066L53.72 61.0933V61.0799C53.7467 60.9566 53.8433 60.6766 54 60.2666L54.54 58.8133L55.1733 57.1066L55.8367 55.3666L56.4033 53.9166C56.5633 53.5033 56.66 53.2166 56.72 53.0666C56.7833 52.9399 56.88 52.7466 57.0033 52.4333L57.4467 51.3899L57.9833 50.1566L58.5567 48.8899L59.03 47.7499L59.3733 46.9966L59.3767 46.9933C59.66 46.4266 60.0033 45.7999 60.3833 45.1066C60.7933 44.4166 61.2333 43.7533 61.7033 43.0633C62.21 42.3966 62.71 41.7366 63.2467 41.1099C63.7833 40.4866 64.3467 39.9533 64.9133 39.4499C65.49 38.9833 66.0667 38.5766 66.65 38.2999C67.1646 38.0327 67.7336 37.8867 68.3133 37.8733C68.6 37.8733 68.79 37.9333 68.9067 38.0033C68.9531 38.0473 68.9895 38.1006 69.0137 38.1599C69.0378 38.2191 69.0491 38.2827 69.0467 38.3466C69.0467 38.6133 68.9033 39.0366 68.5667 39.5233C68.22 40.0566 67.8133 40.6266 67.31 41.2566C66.77 41.8899 66.2333 42.5533 65.6333 43.2466C65.0333 43.9466 64.46 44.6433 63.92 45.3399C63.423 45.9823 62.9644 46.6535 62.5467 47.3499V47.3533C62.2097 47.8939 61.9779 48.4933 61.8633 49.1199V49.1433C61.8603 49.168 61.8559 49.1924 61.85 49.2166C61.84 49.2499 61.83 49.2633 61.83 49.3333V49.5233C61.83 50.3799 62.1367 51.0733 62.7433 51.5433C63.3533 52.0499 64.2133 52.2766 65.2767 52.2766C66.44 52.2766 67.51 52.0499 68.51 51.5966C69.5033 51.1499 70.5267 50.5433 71.5767 49.7433H71.58C72.63 48.9566 73.7133 48.0199 74.8833 46.9333C76.02 45.8499 77.3467 44.6499 78.83 43.3333C79.2191 43.0257 79.5203 42.621 79.7033 42.1599C79.9 41.6999 80 41.2433 80 40.7933C80.007 40.4153 79.9126 40.0424 79.7267 39.7133C79.6473 39.5632 79.5282 39.4378 79.3824 39.3508C79.2366 39.2638 79.0698 39.2186 78.9 39.2199C78.7091 39.2246 78.522 39.2737 78.3533 39.3633C78.1767 39.4499 77.99 39.5633 77.7867 39.6999C77.44 39.8099 77.8433 39.9099 77.8867 40.0599C76.0933 41.6633 74.54 43.0166 73.31 44.0799C72.0433 45.1866 70.98 46.0399 70.1567 46.7066C69.5468 47.2 68.9078 47.6563 68.2433 48.0733C67.8033 48.3366 67.4667 48.4633 67.28 48.4633C67.02 48.4633 66.84 48.3966 66.76 48.3199C66.7121 48.2734 66.6745 48.2173 66.6498 48.1553C66.6251 48.0932 66.6138 48.0267 66.6167 47.9599C66.6394 47.87 66.679 47.7851 66.7333 47.7099C66.8528 47.5332 66.983 47.364 67.1233 47.2033L68.45 45.6533C68.99 45.0499 69.53 44.3833 70.13 43.6533C70.73 42.9199 71.2967 42.1633 71.8033 41.3799C72.3367 40.6133 72.7533 39.8233 73.1033 39.0466C73.44 38.2699 73.6233 37.5299 73.6233 36.8266C73.634 36.3303 73.512 35.8401 73.27 35.4066C73.041 35.0083 72.7255 34.6666 72.3467 34.4066C71.98 34.1399 71.5533 33.9399 71.0967 33.8033H71.0933C69.941 33.4812 68.7129 33.5672 67.6167 34.0466C66.913 34.3399 66.2444 34.7111 65.6233 35.1533C64.9644 35.6128 64.3353 36.1138 63.74 36.6533C63.3065 37.0618 62.8841 37.4819 62.4733 37.9133L62.5933 37.3266C62.6433 37.0833 62.6767 36.8566 62.7067 36.6366V36.6333C62.74 36.4066 62.75 36.2466 62.75 36.1366C62.7752 35.6836 62.6248 35.2382 62.33 34.8933V34.8899H62.3233C62.0333 34.5899 61.5833 34.4599 60.99 34.4599C60.5833 34.4599 60.19 34.6933 59.8567 35.0933C59.5126 35.523 59.2185 35.9905 58.98 36.4866C58.7229 37.0056 58.498 37.5399 58.3067 38.0866L57.8633 39.3466V39.3499C57.71 39.8799 57.54 40.4199 57.3633 40.9666C57.3168 40.9792 57.2712 40.9947 57.2267 41.0133C57.0532 41.0728 56.8973 41.1748 56.7733 41.3099L56.7833 41.2999C56.39 41.6799 55.9467 42.1233 55.4533 42.5966C54.9633 43.0699 54.4433 43.5433 53.9067 44.0166C53.3667 44.4599 52.82 44.9333 52.2733 45.3733C51.7333 45.8066 51.2067 46.1899 50.7033 46.5233C50.2033 46.8599 49.7367 47.1233 49.3067 47.3266C48.9876 47.4952 48.6367 47.5951 48.2767 47.6199C48.0767 47.6199 47.9933 47.5733 47.9433 47.4799H47.94C47.8605 47.3198 47.8237 47.1418 47.8333 46.9633C47.8333 46.5866 47.9 46.1533 48.0467 45.6633C48.1867 45.1766 48.3333 44.7499 48.48 44.3799L48.5733 44.2799L49.82 41.1066C50.2933 39.8899 50.8 38.6199 51.37 37.2666L53.08 33.0866C53.6467 31.6633 54.22 30.2866 54.7567 28.9733L56.34 25.2999C56.8133 24.1799 57.2267 23.2366 57.5733 22.4733L57.57 22.4799C57.7667 22.0899 57.8933 21.7233 58.02 21.4133V21.4066C58.1344 21.0887 58.1963 20.7544 58.2033 20.4166C58.2033 19.7633 58 19.2499 57.6033 18.9399C57.2412 18.6478 56.7886 18.491 56.3233 18.4966Z" fill="#00DF5E"/>
</g>
<defs>
<clipPath id="clip0_254707_843">
<rect width="80" height="80" fill="white"/>
</clipPath>
</defs>
</svg>
