<svg width="80" height="80" viewBox="0 0 80 80" fill="none" xmlns="http://www.w3.org/2000/svg">
<g clip-path="url(#clip0_254707_838)">
<path d="M61.25 0H18.75C8.39466 0 0 8.39466 0 18.75V61.25C0 71.6053 8.39466 80 18.75 80H61.25C71.6053 80 80 71.6053 80 61.25V18.75C80 8.39466 71.6053 0 61.25 0Z" fill="#00DF5E"/>
<path d="M48.2597 72.3025L48.9191 61.3113L50.7406 58.2022C50.7406 58.2022 46.595 59.8979 39.6553 59.8979C32.715 59.8979 28.6325 58.2335 28.6325 58.2335L30.6737 61.625L31.3959 72.3025C31.3959 73.4472 35.1709 74.375 39.8278 74.375C44.4844 74.375 48.2597 73.4472 48.2597 72.3025ZM46.1788 20.9754L47.5634 15.5029L55.2303 7.43536L53.2097 5.71411L45.0925 14.3079L43.485 20.8463C42.2751 20.8058 41.0646 20.7857 39.8541 20.786C31.3053 20.786 24.375 21.76 24.375 22.9616C24.375 24.1635 31.3053 25.1375 39.8541 25.1375C48.4028 25.1375 55.3331 24.1635 55.3331 22.9616C55.3331 22.0769 51.5744 21.3154 46.1788 20.9754Z" fill="#171717"/>
<path d="M45.3735 24.0401C45.3735 24.0401 45.0738 24.1076 44.1916 24.1113C43.3094 24.1147 42.6832 24.1054 42.4335 23.8782C42.3663 23.8172 42.3297 23.696 42.33 23.6138C42.3307 23.4576 42.4416 23.3657 42.5828 23.3082L42.7163 23.5176C42.6585 23.5376 42.625 23.5613 42.625 23.5866C42.6244 23.7054 43.5272 23.7866 44.2175 23.7779C44.9078 23.7691 45.7422 23.7122 45.7428 23.5954C45.7428 23.5601 45.68 23.5266 45.57 23.5007L45.7032 23.2926C45.8819 23.3479 46.0382 23.4551 46.0378 23.641C46.0363 23.9566 45.6344 24.0047 45.3735 24.0401ZM55.2153 7.45131C55.4082 7.22881 55.1157 6.65912 54.5619 6.17943C54.0082 5.70006 53.4028 5.49193 53.2097 5.71443C53.0169 5.93693 53.3094 6.50662 53.8635 6.98631C54.4169 7.46568 55.0225 7.67412 55.2153 7.45131ZM47.891 45.4557C47.7091 43.7072 51.7147 41.1754 50.6869 41.0944C48.4738 41.2207 47.3722 43.6879 46.2588 46.2716C45.851 47.2185 44.4547 51.2563 43.5391 50.7594C42.6235 50.2626 44.726 46.9419 45.315 44.9701C44.635 45.4685 42.1416 47.406 41.4991 45.5916C40.466 46.4691 38.2585 46.9444 38.5075 44.6397C37.9578 45.6132 36.7244 46.9722 35.2438 46.4076C33.2991 45.666 36.3703 39.4719 37.1341 39.7844C37.8978 40.0969 36.98 41.5079 36.7394 42.0557C36.2107 43.2616 35.6 44.7776 36.0082 45.0879C36.7069 45.6194 38.6091 43.0766 38.6516 43.0207C39.0072 42.5507 40.0207 39.4757 40.8378 39.8288C41.6547 40.1819 38.8 44.2419 39.8675 45.0476C40.0825 45.2104 40.9635 44.9472 41.4991 44.3676C41.8457 43.9929 41.7266 43.1622 42.8819 40.4066C44.0375 37.651 45.0675 34.2194 45.8597 34.481C46.6522 34.7422 45.9991 36.5035 45.7147 37.1601C44.3807 40.2416 42.0738 45.3329 43.1619 44.9472C44.2497 44.5619 44.8163 44.5394 45.8816 43.2929C46.9469 42.046 46.8978 39.9926 47.6078 40.0363C48.3182 40.0801 48.1991 40.7385 48.0266 41.2397C48.7257 40.4401 51.3394 38.7557 51.9707 40.4238C52.7182 42.3988 48.2307 45.2516 49.3497 45.106C50.4403 44.9641 52.2075 43.8451 52.9622 42.8272L55.0391 24.1554C55.0391 24.1554 52.9491 25.8847 39.6532 25.8847C26.3569 25.8847 24.4832 24.191 24.4832 24.191L26.2513 41.2344C27.19 38.5669 29.4188 33.1713 32.9319 33.3522C34.5297 33.4347 36.6632 36.5119 34.8357 36.6163C34.0622 36.6601 33.9838 35.0804 33.0678 34.8482C32.4069 34.6807 31.4866 35.2182 30.8919 35.8004C29.706 36.961 27.155 41.5407 27.4919 43.8238C27.9216 46.7347 31.5088 42.8122 32.116 41.6479C32.5435 40.8276 32.8322 38.3972 33.7669 38.6522C34.7022 38.9072 33.6853 41.4154 33.0078 43.6329C32.2463 46.1229 31.8463 48.7494 30.8922 48.4476C29.9375 48.1454 31.4922 44.931 31.436 44.3676C30.5391 45.1954 28.8863 47.2904 26.7722 46.2535L27.8703 56.8372C27.8703 56.8372 30.7891 59.1432 39.581 59.1432C48.3732 59.1432 51.3997 56.8732 51.3997 56.8732L52.7635 44.6147C51.6478 45.701 48.1169 47.6301 47.891 45.4557Z" fill="#171717"/>
</g>
<defs>
<clipPath id="clip0_254707_838">
<rect width="80" height="80" fill="white"/>
</clipPath>
</defs>
</svg>
