<svg width="80" height="80" viewBox="0 0 80 80" fill="none" xmlns="http://www.w3.org/2000/svg">
<g clip-path="url(#clip0_254707_799)">
<path d="M20.0612 38.4131C19.7487 42.3478 23.2055 45.2459 25.5645 45.2459C27.9269 45.1358 37.1273 37.3825 37.1273 37.3825C41.4545 31.9098 41.4733 29.4764 41.4733 27.5638C41.1123 19.1195 25.728 31.9809 20.0612 38.4131ZM58.1183 35.1447C60.2066 30.725 57.397 25.8161 51.2858 30.1278C46.4295 33.2144 40.1425 39.5641 37.1336 42.0497C35.738 44.8686 39.2758 52.6045 44.882 48.52C51.5086 43.7056 56.3477 39.1786 58.1183 35.1447ZM63.8058 8.40844L65.1516 0H80V15.3491L74.5583 15.4141L68.0059 37.6069C68.4138 45.4394 64.4419 45.5669 63.9345 49.1608C62.6594 58.1936 52.558 65.5845 48.6959 65.5845C46.1202 65.5098 44.2372 62.5577 43.6047 59.9852C50.8672 51.9523 60.6334 45.6397 60.6334 45.6397C61.2433 41.4152 59.903 40.0702 64.4105 36.4703L68.7117 13.855C65.0383 11.4292 63.3242 11.4669 63.8058 8.40844ZM34.8234 45.8616C38.5894 53.4497 44.0308 53.6475 52.4672 43.9867C52.6677 44.8798 52.8872 45.8156 52.4844 48.0625C35.3225 63.4123 19.1584 78.3516 14.2383 80H0V76.1812C2.31562 72.97 21.32 57.2952 34.8234 45.8616ZM60.1872 60.5538C59.4145 67.1219 53.4263 72.8694 45.4244 80H20.0644L41.4437 61.9914C45.1344 70.3906 51.6897 69.1739 60.1873 60.5538M30.1969 45.6453L0 71.3834V54.685L17.7703 40.2187C18.7209 45.6033 24.5445 50.3447 30.1969 45.6456" fill="#00DF5E"/>
</g>
<defs>
<clipPath id="clip0_254707_799">
<rect width="80" height="80" fill="white"/>
</clipPath>
</defs>
</svg>
